<?xml version="1.0" standalone="no"?> <!DOCTYPE svg PUBLIC "-//W3C//DTD SVG 1.0//EN" "http://www.w3.org/TR/2001/REC-SVG-20010904/DTD/svg10.dtd" > <svg xmlns="http://www.w3.org/2000/svg" width="100%" height="100%">
<defs >
<font id="chronicledisp-bold" horiz-adv-x="442" ><font-face
    font-family="Chronicle Display Bold"
    units-per-em="1000"
    panose-1="0 0 0 0 0 0 0 0 0 0"
    ascent="800"
    descent="-200"
    alphabetic="0" />
<missing-glyph horiz-adv-x="500" d="M0 -200V800H500V-200H0ZM71 750L250 360L429 750H71ZM50 -76L222 300L50 676V-76ZM450 676L278 300L450 -76V676ZM250 240L71 -150H429L250 240Z" />
<glyph unicode=" " glyph-name="space" horiz-adv-x="191" />
<glyph unicode="!" glyph-name="exclam" horiz-adv-x="286" d="M136 203Q127 286 98 439T68 631Q68 676 87 700T144 725Q180 725 199 700T219 631Q219 592 190 439T151 203H136ZM176 -17T142 -17T85 5T62 61Q62 93 85 116T144 140Q178 140 200 118T223 62Q223 30 200 7Z" />
<glyph unicode="&quot;" glyph-name="quotedbl" horiz-adv-x="457" d="M275 414L261 420L282 562Q297 652 304 669Q319 707 358 707Q385 707 404 689T424 645Q424 635 419 622Q410 601 360 530L275 414ZM83 414L68 420L89 562Q103 648 111 669Q128 707 166 707Q193
707 212 689T231 645Q231 635 226 622Q218 601 168 530L83 414Z" />
<glyph unicode="#" glyph-name="numbersign" horiz-adv-x="706" d="M321 708L276 483H488L533 708H559L514 483H672V462H510L460 210H629V189H456L411 -42H385L430 189H218L173 -42H147L192 189H38V210H196L246 462H82V483H250L295 708H321ZM272 462L222 210H434L484
462H272Z" />
<glyph unicode="$" glyph-name="dollar" horiz-adv-x="566" d="M271 -65V19Q167 21 103 60T39 161Q39 191 59 214T117 238Q150 238 170 217T190 166Q190 117 138 93Q152 72 188 57T271 39V273L237 285Q194 300 168 312T112 346T67 396T52 465Q52 545 117 593T278
645V718H304V644Q395 641 454 606T513 516Q513 487 495 466T445 445Q409 445 390 464T371 514Q371 533 382 551T411 579Q375 620 304 624V407L339 395Q372 383 394 374T444 349T488 314T515 268T527 207Q527 129 470 76T297 19V-65H271ZM415 95T415 141T389 212T297
263V39Q354 41 384 68ZM172 526Q172 488 196 464T278 417V625Q231 622 202 597T172 526Z" />
<glyph unicode="%" glyph-name="percent" horiz-adv-x="815" d="M599 13Q659 13 702 88T745 240Q745 288 728 313T680 339Q640 339 606 299T554 203T536 96Q536 52 554 33T599 13ZM579 -14Q513 -14 475 26T437 136Q437 226 502 300T654 375Q708 375 739 340T771
241Q771 207 759 165T725 82T665 14T579 -14ZM356 544Q356 558 354 578Q298 593 249 630Q205 604 176 535T147 400Q147 356 165 337T210 317Q270 317 313 393T356 544ZM264 679Q338 679 366 620Q410 599 465 599Q554 599 643 694H672L185 -26H138L604 628L601 631Q529
568 428 568Q401 568 380 572Q382 556 382 545Q382 498 363 442T297 338T190 290Q124 290 86 330T48 440Q48 530 113 604T264 679Z" />
<glyph unicode="&amp;" glyph-name="ampersand" horiz-adv-x="768" d="M340 392Q377 424 391 459T406 546Q406 598 385 626T325 654Q290 654 268 628T246 556Q246 517 266 482T340 392ZM231 331Q166 272 166 187Q166 123 204 86T305 49Q374 49 424 112Q395 160
340 221T231 331ZM505 216Q536 294 578 331T660 368Q699 368 722 346T746 288Q746 258 726 237T675 215Q646 215 627 235T607 285Q607 291 610 300L606 303Q557 276 518 200Q568 119 604 89T677 59Q704 59 742 85L750 76Q666 -17 586 -17Q536 -17 503 7T433 96Q358
-17 226 -17Q141 -17 89 30T37 152Q37 285 216 344Q136 423 136 500Q136 574 188 622T331 670Q415 670 462 630T510 532Q510 433 360 373Q461 289 505 216Z" />
<glyph unicode="&apos;" glyph-name="quotesingle" horiz-adv-x="264" d="M83 414L68 420L89 562Q103 648 111 669Q128 707 166 707Q193 707 212 689T231 645Q231 635 226 622Q218 601 168 530L83 414Z" />
<glyph unicode="(" glyph-name="parenleft" horiz-adv-x="383" d="M409 -166Q347 -143 289 -103T181 -6T99 130T68 299T99 467T180 604T289 701T409 764L415 752Q307 684 253 579T198 299T252 20T415 -154L409 -166Z" />
<glyph unicode=")" glyph-name="parenright" horiz-adv-x="383" d="M-26 -166L-32 -154Q75 -86 129 19T184 299T130 578T-32 752L-26 764Q36 741 94 701T202 604T284 468T315 299T284 131T203 -6T94 -103T-26 -166Z" />
<glyph unicode="*" glyph-name="asterisk" horiz-adv-x="423" d="M267 379Q249 373 235 380T213 409Q208 423 213 538L203 541Q142 449 128 439Q92 412 67 446Q43 480 79 507Q85 512 102 518T136 528T174 539T200 546V555Q195 556 174 562T137 572T103 583T79
594Q42 622 67 656Q94 690 128 663Q151 644 203 560L213 563Q208 678 213 691Q226 733 267 721Q307 709 294 664Q289 650 217 560L223 553Q325 593 345 593Q366 593 378 582T390 551T378 520T345 508Q331 508 224 547L218 539Q290 448 294 436Q307 391 267 379Z"
/>
<glyph unicode="+" glyph-name="plus" horiz-adv-x="556" d="M54 316V338H266V549H292V338H502V316H292V102H266V316H54Z" />
<glyph unicode="," glyph-name="comma" horiz-adv-x="254" d="M33 -159L27 -147Q81 -119 112 -79T147 -5L143 -3Q130 -10 114 -10Q86 -10 66 10T46 62T67 117T121 140Q161 140 185 113T210 40Q210 -25 163 -79T33 -159Z" />
<glyph unicode="-" glyph-name="hyphen" horiz-adv-x="366" d="M55 239V280H311V239H55Z" />
<glyph unicode="." glyph-name="period" horiz-adv-x="254" d="M160 -17T126 -17T70 5T47 61Q47 93 70 116T128 140T185 118T208 62Q208 30 184 7Z" />
<glyph unicode="/" glyph-name="slash" horiz-adv-x="457" d="M8 -215L220 265L428 746H458L246 265L38 -215H8Z" />
<glyph unicode="0" glyph-name="zero" horiz-adv-x="635" d="M316 -14Q190 -14 115 82T39 329T117 579T319 679Q445 679 520 582T596 333Q596 184 518 85T316 -14ZM322 4Q390 4 415 80T440 331Q440 503 412 581T313 660Q245 660 220 583T195 331Q195 160 223 82T322 4Z" />
<glyph unicode="1" glyph-name="one" horiz-adv-x="435" d="M36 0V13Q103 14 128 27T154 72V558Q154 605 133 621T34 642V653L295 674V72Q295 41 319 28T412 13V0H36Z" />
<glyph unicode="2" glyph-name="two" horiz-adv-x="573" d="M44 0V86L185 193Q296 276 336 339T377 497Q377 660 260 660Q225 660 192 645T144 603Q212 576 212 517Q212 482 190 457T129 431T68 456T45 520Q45 592 113 635T279 679Q399 679 461 629T523 498Q523
428 465 367T255 207L129 121V117H399Q447 117 467 135T514 221L527 220L524 0H44Z" />
<glyph unicode="3" glyph-name="three" horiz-adv-x="566" d="M260 -14Q158 -14 95 24T31 126Q31 164 54 189T115 214Q151 214 172 191T193 136Q193 83 137 53Q149 33 184 19T260 4Q389 4 389 175Q389 253 350 291T218 329H186V351H214Q303 351 337 391T372 516Q372
590 343 625T251 660Q222 660 193 647T149 615Q208 593 208 533Q208 501 188 478T130 455Q96 455 74 477T51 535Q51 599 115 639T275 679Q391 679 454 636T518 519Q518 383 294 344V340Q411 336 473 293T535 175Q535 87 464 37T260 -14Z" />
<glyph unicode="4" glyph-name="four" horiz-adv-x="599" d="M578 195H450V68Q450 39 469 27T534 13V0H219V13Q309 14 309 68V195H18V241L355 665H450V278H578V195ZM305 559L85 278H309V559H305Z" />
<glyph unicode="5" glyph-name="five" horiz-adv-x="554" d="M262 -14Q172 -14 107 22T42 121Q42 158 66 183T127 209Q162 209 181 187T201 134Q201 75 142 49Q181 4 254 4Q324 4 350 55T377 207Q377 375 245 375Q169 375 101 322L82 331L92 665H506L486 542H113L106
347Q180 402 280 402Q405 402 465 349T525 205Q525 111 455 49T262 -14Z" />
<glyph unicode="6" glyph-name="six" horiz-adv-x="585" d="M302 -14Q184 -14 112 62T39 268Q39 433 146 542Q210 606 293 638T514 682V670Q360 633 286 560T184 347L188 345Q208 389 253 414T354 440Q446 440 500 384T554 237Q554 126 488 56T302 -14ZM305 3Q359
3 384 56T409 216Q409 411 309 411Q255 411 218 358T180 210Q180 109 213 56T305 3Z" />
<glyph unicode="7" glyph-name="seven" horiz-adv-x="536" d="M105 -10V-2L457 545H169Q130 545 112 525T67 433L54 434L62 665H527V653L363 288L235 -10H105Z" />
<glyph unicode="8" glyph-name="eight" horiz-adv-x="571" d="M36 154Q36 205 74 247T182 316Q53 380 53 487Q53 570 121 624T283 679Q384 679 449 636T514 520Q514 428 378 373Q454 340 495 296T537 187Q537 101 463 44T290 -14Q169 -14 103 31T36 154ZM249 288L209
303Q153 253 153 160Q153 94 189 49T291 4Q412 4 412 133Q412 187 370 223T249 288ZM337 389L352 383Q397 427 397 517Q397 578 367 618T278 659Q229 659 202 629T174 541Q174 486 215 452T337 389Z" />
<glyph unicode="9" glyph-name="nine" horiz-adv-x="585" d="M74 -20V-8Q227 28 302 102T405 318L401 320Q380 275 339 250T244 225Q151 225 93 282T35 432Q35 539 104 609T292 679Q414 679 482 603T550 390Q550 229 443 122Q379 58 296 25T74 -20ZM284 254Q335
254 371 308T408 454Q408 555 379 608T293 662Q180 662 180 450Q180 254 284 254Z" />
<glyph unicode=":" glyph-name="colon" horiz-adv-x="268" d="M167 258T133 258T76 281T53 336T77 391T135 415T192 393T215 337Q215 305 191 282ZM167 -17T133 -17T76 5T53 61Q53 93 77 116T135 140T192 118T215 62Q215 30 191 7Z" />
<glyph unicode=";" glyph-name="semicolon" horiz-adv-x="268" d="M167 258T133 258T76 281T53 336T77 391T135 415T192 393T215 337Q215 305 191 282ZM40 -159L34 -147Q88 -119 119 -79T154 -5L150 -3Q137 -10 121 -10Q93 -10 73 10T52 62T73 117T128 140Q168
140 192 113T217 40Q217 -25 170 -79T40 -159Z" />
<glyph unicode="&lt;" glyph-name="less" horiz-adv-x="555" d="M84 314V338L472 551V521L115 326L472 133V102L84 314Z" />
<glyph unicode="=" glyph-name="equal" horiz-adv-x="556" d="M59 216V238H497V216H59ZM59 414V436H497V414H59Z" />
<glyph unicode="&gt;" glyph-name="greater" horiz-adv-x="555" d="M471 315L83 102V132L441 327L83 520V551L471 339V315Z" />
<glyph unicode="?" glyph-name="question" horiz-adv-x="509" d="M208 203V353Q287 379 316 424T345 547Q345 706 219 706Q182 706 152 692T107 653Q141 644 158 621T176 569Q176 536 155 511T96 486T35 511T11 574Q11 641 76 682T239 724Q356 724 421 674T487
544Q487 390 235 338V203H208ZM256 -17T222 -17T165 5T142 61Q142 93 165 116T223 140T280 118T303 62Q303 30 280 7Z" />
<glyph unicode="@" glyph-name="at" horiz-adv-x="909" d="M469 -146Q290 -146 176 -34T61 261Q61 445 181 564T488 684Q638 684 743 588T848 346Q848 213 775 136T611 58Q546 58 521 76T487 135L483 137Q424 67 358 67Q301 67 269 106T236 211Q236 311 308 395T470
480Q536 480 563 427H566L579 471L692 479L641 337L600 194Q583 142 592 113T637 83Q703 83 764 157T826 345Q826 480 728 572T483 665Q308 665 196 550T83 266Q83 95 189 -15T474 -126Q610 -126 723 -44L734 -58Q614 -146 469 -146ZM412 115Q445 115 482 162L553
398Q535 451 493 451Q439 451 394 367T349 201Q349 115 412 115Z" />
<glyph unicode="A" glyph-name="A" horiz-adv-x="706" d="M463 92L401 265H171L137 173Q106 92 120 58T205 14V0H-31V14Q18 27 50 63T113 177L320 713H388L614 99Q631 54 651 38T726 14V0H368V14Q438 17 458 34T463 92ZM179 285H394L292 574H287L179 285Z" />
<glyph unicode="B" glyph-name="B" horiz-adv-x="709" d="M31 0V14Q92 16 113 29T135 71V626Q135 656 113 669T31 684V697H366Q516 697 578 650T641 530Q641 469 589 425T429 370V367Q546 363 606 317T667 196Q667 111 599 56T375 0H31ZM281 376H353Q431 376 461
414T492 527Q492 600 462 639T350 679H281V376ZM281 19H365Q455 19 485 61T516 196Q516 358 355 358H281V19Z" />
<glyph unicode="C" glyph-name="C" horiz-adv-x="721" d="M386 -17Q226 -17 133 78T40 337Q40 505 148 609T413 714Q517 714 598 669L643 719H655V460H640Q587 580 533 637T398 695Q310 695 256 607T202 354Q202 193 268 108T434 23Q591 23 665 185L683 176Q598
-17 386 -17Z" />
<glyph unicode="D" glyph-name="D" horiz-adv-x="780" d="M31 0V14Q92 16 113 29T135 71V626Q135 656 113 669T31 684V697H358Q543 697 640 605T738 361Q738 288 717 225T654 111T540 30T374 0H31ZM281 19H343Q475 19 527 90T579 351Q579 477 552 550T474 651T341
679H281V19Z" />
<glyph unicode="E" glyph-name="E" horiz-adv-x="715" d="M31 0V14Q92 16 113 29T135 71V626Q135 656 113 669T31 684V697H628L631 459L616 458Q586 525 567 559T521 625T463 667T385 679H281V371H323Q385 371 420 401T476 507H489V215H476Q456 291 420 322T323
353H281V19H380Q484 19 535 67T644 253L659 251L654 0H31Z" />
<glyph unicode="F" glyph-name="F" horiz-adv-x="670" d="M31 0V14Q92 16 113 29T135 71V626Q135 656 113 669T31 684V697H626L633 456L618 454Q562 582 514 630T377 679H281V361H323Q385 361 419 390T474 495H487V205H474Q454 281 419 311T323 342H281V71Q281
40 301 27T387 12V0H31Z" />
<glyph unicode="G" glyph-name="G" horiz-adv-x="759" d="M403 -17Q246 -17 144 80T42 347Q42 509 149 611T412 714Q517 714 597 669L646 719H657V476H643Q592 586 536 640T404 695Q318 695 261 608T203 349Q203 177 262 90T412 2Q489 2 530 37V248Q530 278 507
293T422 310V323H746V310Q701 307 686 295T670 249V52Q554 -17 403 -17Z" />
<glyph unicode="H" glyph-name="H" horiz-adv-x="843" d="M31 0V14Q92 16 113 28T135 71V627Q135 656 114 669T31 684V697H377V684Q323 682 302 670T281 627V372H563V627Q563 657 542 669T466 684V697H813V684Q752 682 731 670T709 627V71Q709 41 730 29T813 14V0H466V14Q521
16 542 28T563 71V352H281V71Q281 40 302 28T377 14V0H31Z" />
<glyph unicode="I" glyph-name="I" horiz-adv-x="435" d="M38 0V14Q101 16 123 28T145 71V626Q145 656 123 669T38 684V697H397V684Q334 682 312 669T290 626V71Q290 41 312 29T397 14V0H38Z" />
<glyph unicode="J" glyph-name="J" horiz-adv-x="584" d="M235 -17Q131 -17 77 23T22 128Q22 169 47 196T110 224Q146 224 170 201T195 141Q195 102 170 76T101 47Q141 7 202 7Q265 7 292 53T320 202V626Q320 656 297 669T213 684V697H567V684Q509 682 488 669T467
626V224Q467 -17 235 -17Z" />
<glyph unicode="K" glyph-name="K" horiz-adv-x="762" d="M274 313L498 552Q529 586 540 612T535 659T472 684V697H746V684Q683 671 628 634T495 516L425 443L646 127Q692 62 716 41T786 14V0H453V14Q507 18 515 37T493 100L328 341L274 284V71Q274 41 294 29T368
14V0H24V14Q85 16 106 28T128 71V627Q128 656 107 669T24 684V697H370V685Q316 682 295 670T274 627V313Z" />
<glyph unicode="L" glyph-name="L" horiz-adv-x="658" d="M24 0V14Q85 16 106 29T128 71V626Q128 656 106 669T24 684V697H375V684Q313 682 294 670T274 626V19H333Q406 19 452 41T533 111T611 256L626 255L617 0H24Z" />
<glyph unicode="M" glyph-name="M" horiz-adv-x="997" d="M30 0V14Q99 23 126 58T153 170V576Q153 624 123 653T30 684V697H312L518 183H523L712 697H967V684Q906 682 885 669T863 626V71Q863 41 884 29T967 14V0H622V14Q676 16 697 28T718 71V629H713L480 -1H444L184
629H178V170Q178 93 206 59T308 14V0H30Z" />
<glyph unicode="N" glyph-name="N" horiz-adv-x="809" d="M629 -11L179 571H178V170Q178 93 207 58T312 14V0H30V14Q99 23 126 58T153 170V568Q153 617 122 649T30 684V697H266L651 196H652V528Q652 603 621 639T514 684V697H798V684Q729 674 703 639T677 528V-11H629Z" />
<glyph unicode="O" glyph-name="O" horiz-adv-x="775" d="M387 -17Q236 -17 139 82T42 347Q42 510 141 612T387 714Q539 714 636 615T734 351T635 85T387 -17ZM392 2Q484 2 528 84T572 349Q572 530 524 612T383 695Q291 695 247 614T203 349Q203 168 251 85T392 2Z" />
<glyph unicode="P" glyph-name="P" horiz-adv-x="678" d="M31 0V14Q92 16 113 29T135 71V626Q135 656 113 669T31 684V697H343Q506 697 575 646T645 501Q645 412 573 357T339 301H281V71Q281 39 302 27T391 12V0H31ZM281 319H334Q425 319 458 362T492 502Q492
588 458 633T337 679H281V319Z" />
<glyph unicode="Q" glyph-name="Q" horiz-adv-x="775" d="M392 5Q484 5 528 86T572 350Q572 531 524 613T383 695Q291 695 247 614T203 350Q203 169 251 87T392 5ZM434 -11Q468 -23 502 -52T559 -109T609 -157T661 -178Q690 -178 690 -152Q690 -140 675 -127T645
-97T629 -60Q629 -33 647 -14T694 5Q724 5 744 -17T764 -73Q764 -133 710 -176T576 -219Q529 -219 488 -196T421 -145T364 -94T303 -70Q268 -70 237 -87T164 -144L152 -133Q235 -34 325 -8Q198 12 120 107T42 348Q42 512 140 613T387 714Q539 714 636 616T734 352Q734
202 650 104T434 -11Z" />
<glyph unicode="R" glyph-name="R" horiz-adv-x="735" d="M281 361H349Q440 361 470 396T501 519Q501 599 465 639T338 679H281V361ZM281 344V71Q281 41 303 29T380 14V0H31V14Q92 16 113 29T135 71V626Q135 656 113 669T31 684V697H372Q519 697 586 650T654 528Q654
386 442 356V353Q545 350 587 309T641 189L647 112Q656 51 675 34T756 16V4Q700 -5 650 -5Q561 -5 532 23T496 122L488 209Q480 287 450 315T337 344H281Z" />
<glyph unicode="S" glyph-name="S" horiz-adv-x="588" d="M51 -17V236H67Q176 6 314 6Q379 6 415 42T452 129Q452 187 410 222T272 289Q222 306 193 318T129 354T78 412T61 492Q61 590 127 650T300 710Q386 710 453 672L497 716H509V490H493Q443 594 393 642T285
691Q235 691 199 660T162 575Q162 519 204 486T341 423Q385 409 414 396T475 360T524 302T541 221Q541 124 480 56T299 -13Q204 -13 122 33L63 -17H51Z" />
<glyph unicode="T" glyph-name="T" horiz-adv-x="726" d="M175 0V14Q240 15 265 28T291 71V679H266Q211 679 163 627T58 466L43 468L49 697H678L683 468L668 466Q612 575 564 627T461 679H437V71Q437 42 462 29T553 14V0H175Z" />
<glyph unicode="U" glyph-name="U" horiz-adv-x="808" d="M412 -17Q125 -17 125 219V626Q125 656 103 669T21 684V697H367V684Q314 682 293 669T271 626V214Q271 17 463 17Q543 17 588 62Q645 119 645 228V528Q645 603 614 639T507 684V697H792V684Q723 674 697
639T671 528V225Q671 110 608 47T412 -17Z" />
<glyph unicode="V" glyph-name="V" horiz-adv-x="716" d="M339 -13L105 585Q84 638 63 657T-13 684V697H343V684Q274 681 256 663T254 601L427 148H432L585 551Q609 612 592 642T508 684V697H745V684Q692 674 663 641T600 521L392 -13H339Z" />
<glyph unicode="W" glyph-name="W" horiz-adv-x="1046" d="M523 509L496 585Q478 640 458 660T390 684V697H720V684Q660 681 644 663T642 601L782 173H788L905 549Q926 614 910 643T832 684V697H1065V684Q1008 674 980 641T922 521L753 -13H702L534 477L361 -13H308L109
585Q91 638 70 657T-5 684V697H328V684Q271 681 257 663T256 601L393 170H399L523 509Z" />
<glyph unicode="X" glyph-name="X" horiz-adv-x="722" d="M403 411L509 557Q548 609 538 643T464 684V697H718V684Q661 676 621 644T518 528L418 394L612 97Q639 55 663 39T746 14V0H390V14Q453 17 467 36T454 96L324 305L207 140Q168 85 178 53T250 14V0H-7V14Q55
21 95 51T198 169L310 323L131 599Q102 644 78 659T-4 684V697H349V684Q288 681 274 661T286 600L403 411Z" />
<glyph unicode="Y" glyph-name="Y" horiz-adv-x="691" d="M406 328L535 558Q568 617 559 643T486 684V697H717V684Q665 675 629 644T547 532L420 308V71Q420 41 442 29T527 14V0H168V14Q231 16 253 28T275 71V287L99 602Q76 641 53 658T-15 684V697H338V684Q267
680 251 659T261 598L406 328Z" />
<glyph unicode="Z" glyph-name="Z" horiz-adv-x="667" d="M32 0L31 13L462 677H293Q238 677 188 627T73 462L57 464L72 697H630L631 684L200 20H396Q451 20 498 72T616 248L631 246L620 0H32Z" />
<glyph unicode="[" glyph-name="bracketleft" horiz-adv-x="371" d="M95 -165V764H394V744H214V-145H394V-165H95Z" />
<glyph unicode="\" glyph-name="backslash" horiz-adv-x="457" d="M418 -215L210 265L-2 746H28L236 265L448 -215H418Z" />
<glyph unicode="]" glyph-name="bracketright" horiz-adv-x="371" d="M-23 -165V-145H157V744H-23V764H276V-165H-23Z" />
<glyph unicode="^" glyph-name="asciicircum" horiz-adv-x="359" d="M19 517L172 765H189L339 517H315L180 647L43 517H19Z" />
<glyph unicode="_" glyph-name="underscore" horiz-adv-x="440" d="M-2 0V31H442V0H-2Z" />
<glyph unicode="`" glyph-name="grave" horiz-adv-x="238" d="M167 526L85 611Q48 649 36 666T23 700Q23 722 40 737T81 753Q107 753 121 731T149 651L184 526H167Z" />
<glyph unicode="a" glyph-name="a" horiz-adv-x="511" d="M170 -5Q103 -5 68 30T32 112Q32 143 48 171T95 216Q138 239 223 250T314 264V345Q314 399 297 423T240 448Q194 448 167 426Q194 399 194 368T176 319T125 300Q96 300 77 319T57 367Q57 413 109 440T261
467Q354 467 400 430T447 311V88Q447 50 463 41T520 47L526 36Q464 -4 419 -4Q373 -4 351 14T322 72H318Q249 -5 170 -5ZM242 50Q286 50 314 94V244Q230 231 202 207T173 128Q173 92 191 71T242 50Z" />
<glyph unicode="b" glyph-name="b" horiz-adv-x="562" d="M63 -19L65 76V646Q65 672 51 683T-10 695V707L198 717V408Q262 470 348 470Q435 470 483 407T531 246Q531 135 471 64T310 -8Q213 -8 146 36L81 -19H63ZM289 11Q340 11 364 73T389 241Q389 324 361 376T281
428Q243 428 198 391V81Q230 11 289 11Z" />
<glyph unicode="c" glyph-name="c" horiz-adv-x="482" d="M263 -8Q155 -8 92 54T29 223Q29 336 99 403T277 470Q368 470 415 436T462 359Q462 326 444 306T392 286Q357 286 338 306T318 355Q318 400 354 418Q331 452 281 452T201 394T171 237Q171 150 207 92T314
33Q396 33 457 113L468 106Q395 -8 263 -8Z" />
<glyph unicode="d" glyph-name="d" horiz-adv-x="565" d="M229 -8Q136 -8 83 56T29 223Q29 327 92 398T262 470Q314 470 360 451V646Q360 672 346 683T285 695V707L493 717V55Q493 32 507 21T562 9V0L362 -4V54Q307 -8 229 -8ZM288 41Q327 41 360 71V403Q328 451
273 451Q225 451 198 392T170 234Q170 151 201 96T288 41Z" />
<glyph unicode="e" glyph-name="e" horiz-adv-x="498" d="M266 -8Q159 -8 94 54T29 225Q29 335 97 402T265 470Q368 470 422 409T471 248H170V229V228Q170 136 208 85T321 34Q365 34 397 54T459 116L470 109Q396 -8 266 -8ZM259 451Q177 451 171 266H335Q344 353
325 402T259 451Z" />
<glyph unicode="f" glyph-name="f" horiz-adv-x="357" d="M30 0V12Q73 13 86 20T99 49V424H13V440L99 459V499Q99 616 153 672Q203 723 305 723Q377 723 414 699T452 635Q452 604 435 585T386 566Q355 566 335 583T315 637Q315 669 336 694Q323 704 301 704Q275
704 259 688Q232 661 232 557V457H358V425H232V49Q232 28 250 21T326 12V0H30Z" />
<glyph unicode="g" glyph-name="g" horiz-adv-x="479" d="M251 -183Q316 -183 357 -156T398 -81Q398 -19 281 -19H154Q102 -46 102 -90Q102 -183 251 -183ZM246 176Q284 176 299 208T314 313Q314 450 237 450Q198 450 184 419T169 313Q169 242 187 209T246 176ZM242
467Q294 467 335 451Q375 543 445 543Q474 543 490 528T506 487Q506 466 493 452T458 438Q438 438 423 454T407 495Q375 484 352 444Q443 404 443 315Q443 244 386 201T242 158Q206 158 177 165Q121 147 121 118Q121 86 210 86H310Q483 86 483 -35Q483 -103 412
-151T225 -200Q132 -200 73 -173T14 -103Q14 -34 127 -18V-15Q43 11 43 79Q43 106 71 132T149 172Q40 209 40 311Q40 381 97 424T242 467Z" />
<glyph unicode="h" glyph-name="h" horiz-adv-x="585" d="M12 0V12Q54 13 67 20T81 49V646Q81 672 67 683T6 695V707L214 717V364Q246 412 291 439T386 467Q512 467 512 323V49Q512 28 525 21T581 12V0H325V12Q355 13 367 20T379 49V313Q379 408 306 408Q255 408
214 342V49Q214 28 225 21T267 12V0H12Z" />
<glyph unicode="i" glyph-name="i" horiz-adv-x="311" d="M159 541Q123 541 102 561T80 618T102 676T159 699T215 678T237 621Q237 584 216 563T159 541ZM23 0V12Q66 13 80 20T95 49V393Q95 417 79 429T23 443V455L228 464V49Q228 28 241 21T298 12V0H23Z" />
<glyph unicode="j" glyph-name="j" horiz-adv-x="304" d="M159 541Q123 541 102 561T80 618T102 676T159 699T215 678T237 621Q237 584 216 563T159 541ZM34 -200Q-32 -200 -68 -176T-105 -116Q-105 -85 -86 -66T-37 -47T12 -66T31 -114Q31 -151 4 -173Q20 -181
33 -181Q97 -181 97 -71V393Q97 418 80 430T16 443V455L228 464V19Q228 -49 217 -87T175 -155Q128 -200 34 -200Z" />
<glyph unicode="k" glyph-name="k" horiz-adv-x="557" d="M214 187V49Q214 28 225 21T264 12V0H12V12Q54 13 67 20T81 49V646Q81 672 67 683T6 695V707L214 717V211L349 355Q414 426 317 450V462H539V450Q491 440 453 416T366 342L332 310L489 78Q517 37 533 27T584
12V0H322V12Q357 14 362 26T350 66L249 223L214 187Z" />
<glyph unicode="l" glyph-name="l" horiz-adv-x="302" d="M18 0V12Q59 13 72 20T86 49V646Q86 672 72 683T11 695V707L219 717V49Q219 28 232 21T288 12V0H18Z" />
<glyph unicode="m" glyph-name="m" horiz-adv-x="875" d="M328 0V12Q359 13 369 20T379 49V313Q379 408 307 408Q282 408 264 392T223 342V49Q223 28 232 21T271 12V0H20V12Q63 13 76 20T90 49V393Q90 418 76 430T20 443V455L221 464V364Q290 467 387 467Q492
467 509 363Q540 410 585 438T676 467Q802 467 802 323V49Q802 28 815 21T871 12V0H620V12Q650 13 659 20T669 49V313Q669 408 600 408Q556 408 511 342Q512 335 512 326V49Q512 28 523 21T565 12V0H328Z" />
<glyph unicode="n" glyph-name="n" horiz-adv-x="592" d="M20 0V12Q63 13 76 20T90 49V393Q90 418 76 430T20 443V455L221 464V364Q253 412 299 439T394 467Q519 467 519 323V49Q519 28 532 21T588 12V0H331V12Q362 13 374 20T386 49V314Q386 408 315 408Q266
408 223 342V49Q223 28 234 21T276 12V0H20Z" />
<glyph unicode="o" glyph-name="o" horiz-adv-x="541" d="M271 -8Q160 -8 95 56T29 230Q29 339 96 404T271 470Q381 470 446 407T512 234T445 59T271 -8ZM275 11Q326 11 348 65T370 232Q370 451 266 451Q214 451 193 398T172 232Q172 11 275 11Z" />
<glyph unicode="p" glyph-name="p" horiz-adv-x="567" d="M5 -190V-178Q47 -177 60 -170T74 -141V393Q74 418 60 430T4 443V455L205 464V402Q280 470 353 470Q440 470 489 407T538 236Q538 131 481 62T324 -8Q261 -8 207 16V-141Q207 -162 225 -169T300 -178V-190H5ZM300
11Q396 11 396 231Q396 316 370 369T291 423Q250 423 207 386V77Q235 11 300 11Z" />
<glyph unicode="q" glyph-name="q" horiz-adv-x="562" d="M271 -190V-178Q326 -177 345 -169T364 -143V52Q295 -8 216 -8Q128 -8 80 56T31 216Q31 326 92 398T254 470Q348 470 415 425L481 481H499L497 386V-143Q497 -162 510 -169T565 -178V-190H271ZM282 36Q320
36 364 70V381Q332 451 275 451Q224 451 199 389T173 221Q173 140 201 88T282 36Z" />
<glyph unicode="r" glyph-name="r" horiz-adv-x="450" d="M20 0V12Q63 13 76 20T90 49V393Q90 418 76 430T20 443V455L221 464V368Q246 415 282 441T359 468Q401 468 424 445T448 385Q448 351 428 330T377 308Q343 308 322 328T301 378Q301 397 308 418Q262 412
223 347V49Q223 28 240 21T312 12V0H20Z" />
<glyph unicode="s" glyph-name="s" horiz-adv-x="437" d="M36 -8V164H50Q100 82 141 47T235 11Q273 11 294 31T315 83Q315 118 289 138T185 180Q103 203 70 232T36 317Q36 386 85 428T218 470Q292 470 343 436L371 470H383V316H369Q322 391 290 421T212 451Q178
451 158 431T137 376Q137 347 164 330T248 297Q332 276 371 244T411 151Q411 82 360 37T225 -8Q197 -8 149 4T79 29L48 -8H36Z" />
<glyph unicode="t" glyph-name="t" horiz-adv-x="375" d="M231 -9Q93 -9 93 131V424H4V440L95 459V586L226 626V457H367V425H226V122Q226 78 239 59T284 39Q331 39 363 104L375 98Q353 43 319 17T231 -9Z" />
<glyph unicode="u" glyph-name="u" horiz-adv-x="582" d="M214 -8Q150 -8 114 29T78 138V399Q78 424 64 435T9 448V460L211 464V150Q211 54 284 54Q333 54 373 117V399Q373 423 358 435T303 448V460L506 464V50Q506 29 519 21T575 12V0H375V95Q310 -8 214 -8Z" />
<glyph unicode="v" glyph-name="v" horiz-adv-x="514" d="M222 -7L68 384Q54 419 37 432T-16 450V462H257V450Q224 447 211 440T198 418Q198 407 203 396L308 108H312L406 348Q418 378 418 396Q418 440 344 450V462H536V450Q472 444 443 374L289 -7H222Z" />
<glyph unicode="w" glyph-name="w" horiz-adv-x="783" d="M393 324L372 384Q360 419 345 432T296 450V462H559V450Q528 447 515 440T501 416Q501 407 504 395L595 114H599L673 341Q685 378 685 398Q685 421 669 433T617 450V462H807V450Q734 443 710 374L580 -7H509L403
295L285 -7H216L68 384Q55 418 38 431T-15 450V462H253V450Q196 444 196 417Q196 408 201 395L303 111H307L393 324Z" />
<glyph unicode="x" glyph-name="x" horiz-adv-x="518" d="M297 280L359 358Q393 402 386 422T328 450V462H522V450Q482 443 455 425T393 364L311 266L438 86Q467 46 484 32T535 12V0H271V12Q314 17 321 30T308 70L224 196L148 101Q115 56 124 38T187 12V0H-10V12Q29
20 55 36T113 92L211 210L91 379Q60 421 44 433T-7 450V462H257V450Q218 445 211 433T221 394L297 280Z" />
<glyph unicode="y" glyph-name="y" horiz-adv-x="505" d="M257 -19L67 384Q51 420 35 432T-19 450V462H256V450Q214 446 203 434T204 396L319 128L406 348Q426 399 413 420T344 450V462H537V450Q472 443 444 374L269 -46Q206 -200 110 -200Q67 -200 43 -180T18
-123Q18 -96 36 -76T84 -56Q110 -56 128 -74T147 -121Q147 -156 122 -179Q160 -175 190 -143T251 -33L257 -19Z" />
<glyph unicode="z" glyph-name="z" horiz-adv-x="488" d="M28 0L26 15L322 442H230Q185 442 150 411T63 289L47 291L60 462H465L467 448L170 20H271Q318 20 352 53T442 183L459 181L446 0H28Z" />
<glyph unicode="{" glyph-name="braceleft" horiz-adv-x="404" d="M429 -159Q300 -159 234 -112T167 29Q167 56 176 107T186 174Q186 237 154 266T25 301V317Q123 324 154 351T186 440Q186 455 177 504T167 580Q167 671 232 715T429 764V751Q383 747 355 735T315
698T300 651T297 585Q297 572 300 534T303 471Q303 394 258 359T87 311V306Q207 296 255 259T303 143Q303 119 300 78T297 24Q297 -10 298 -29T307 -73T327 -109T366 -132T429 -145V-159Z" />
<glyph unicode="|" glyph-name="bar" horiz-adv-x="306" d="M140 -215V746H166V-215H140Z" />
<glyph unicode="}" glyph-name="braceright" horiz-adv-x="404" d="M-25 -159V-145Q12 -142 37 -132T76 -110T97 -73T105 -30T107 24Q107 37 104 78T101 143Q101 221 149 258T317 306V311Q193 324 147 359T101 471Q101 495 104 533T107 585Q107 628 104 650T89
698T49 735T-25 751V764Q106 759 171 715T237 580Q237 554 228 505T218 440Q218 378 250 351T380 317V301Q283 295 251 266T218 174Q218 159 227 108T237 29Q237 -64 171 -111T-25 -159Z" />
<glyph unicode="~" glyph-name="asciitilde" horiz-adv-x="402" d="M40 272Q47 345 70 379T138 413Q166 413 223 385T297 357Q315 357 325 370T346 417H363Q356 344 333 310T265 276Q237 276 180 304T106 332Q88 332 78 319T57 272H40Z" />
</font>
</defs>
</svg>
