<?xml version="1.0" standalone="no"?> <!DOCTYPE svg PUBLIC "-//W3C//DTD SVG 1.0//EN" "http://www.w3.org/TR/2001/REC-SVG-20010904/DTD/svg10.dtd" > <svg xmlns="http://www.w3.org/2000/svg" width="100%" height="100%">
<defs >
<font id="chronicledisp-italic" horiz-adv-x="400" ><font-face
    font-family="Chronicle Display"
    units-per-em="1000"
    panose-1="0 0 0 0 0 0 0 0 0 0"
    ascent="800"
    descent="-200"
    alphabetic="0" />
<missing-glyph horiz-adv-x="500" d="M0 -200V800H500V-200H0ZM71 750L250 360L429 750H71ZM50 -76L222 300L50 676V-76ZM450 676L278 300L450 -76V676ZM250 240L71 -150H429L250 240Z" />
<glyph unicode=" " glyph-name="space" horiz-adv-x="184" />
<glyph unicode="!" glyph-name="exclam" horiz-adv-x="275" d="M139 179L125 182Q148 293 171 457T205 664Q222 725 262 725Q284 725 296 710T308 667Q308 639 288 580T220 399T139 179ZM94 -16Q69 -16 52 1T35 42T52 83T94 100Q118 100 135 83T152 42T135 1T94 -16Z" />
<glyph unicode="&quot;" glyph-name="quotedbl" horiz-adv-x="427" d="M111 440L101 446L144 536Q195 643 214 672T258 702Q275 702 286 691T298 666Q298 646 276 616T185 515L111 440ZM296 440L286 446L329 536Q380 643 399 672T443 702Q460 702 471 691T483
666Q483 646 461 616T370 515L296 440Z" />
<glyph unicode="#" glyph-name="numbersign" horiz-adv-x="703" d="M391 703L321 477H531L601 703H626L556 477H711L710 456H550L472 204H640L639 183H465L396 -43H371L440 183H230L161 -43H136L205 183H51L52 204H212L290 456H123L124 477H296L366 703H391ZM315
456L237 204H447L525 456H315Z" />
<glyph unicode="$" glyph-name="dollar" horiz-adv-x="565" d="M208 -68L181 -61L207 22Q132 31 84 65T36 153Q36 182 54 204T105 227Q128 227 143 213T158 176Q158 132 104 113Q113 89 145 71T216 44L292 299Q213 334 176 366T139 455Q139 530 208 585T377 641Q380
641 386 641T396 640L418 716L445 710L424 637Q488 627 532 593T576 512Q576 485 558 464T512 443Q490 443 476 457T461 492Q461 511 473 527T507 551Q499 574 475 592T416 617L342 374H343Q344 373 345 373Q380 357 390 352T428 329T466 299T487 263T498 213Q498
141 429 80T260 19Q243 19 235 20L208 -68ZM412 169Q412 242 314 289L239 40Q246 39 260 39Q332 39 372 75T412 169ZM223 502Q223 462 244 437T321 384L392 620Q387 621 377 621Q315 621 270 590T223 502Z" />
<glyph unicode="%" glyph-name="percent" horiz-adv-x="811" d="M418 610Q456 591 504 591Q595 591 709 689H735L159 -26H113L657 621L654 624Q578 564 484 564Q449 564 423 570Q421 474 352 381T197 287Q141 287 112 317T82 401Q82 496 161 585T331 674Q401 674
418 610ZM553 -14Q497 -14 468 16T438 100Q438 195 517 284T687 373Q730 373 754 347T779 272Q779 212 749 146T665 33T553 -14ZM558 8Q633 8 693 98T754 266Q754 338 697 338Q630 338 568 251T506 85Q506 8 558 8ZM398 577Q355 592 314 635Q252 617 201 536T150
386Q150 309 202 309Q277 309 337 399T398 567V577Z" />
<glyph unicode="&amp;" glyph-name="ampersand" horiz-adv-x="702" d="M345 377Q471 441 471 574Q471 611 454 631T405 651Q359 651 325 614T290 522Q290 453 345 377ZM270 340Q203 310 165 258T126 144Q126 95 155 64T239 33Q307 33 387 110Q357 227 270 340ZM450
181Q509 273 554 318T642 364Q675 364 693 347T711 300Q711 275 695 257T655 239Q634 239 619 252T603 285Q603 298 608 309L606 312Q574 301 543 271T458 165Q479 91 504 64T572 36Q601 36 642 67L650 59Q586 -17 528 -17Q425 -17 392 95Q297 -17 192 -17Q110
-17 70 25T29 126Q29 203 89 262T262 351Q244 381 237 395T224 432T218 479Q218 556 276 610T407 665Q469 665 508 633T548 551Q548 497 498 449T354 364Q420 279 450 181Z" />
<glyph unicode="&apos;" glyph-name="quotesingle" horiz-adv-x="243" d="M111 440L101 446L144 536Q195 643 214 672T258 702Q275 702 286 691T298 666Q298 646 276 616T185 515L111 440Z" />
<glyph unicode="(" glyph-name="parenleft" horiz-adv-x="383" d="M312 -166Q213 -118 148 -22T83 195Q83 300 126 398T237 569T387 693T551 764L554 753Q378 692 273 525T168 168Q168 52 202 -24T317 -157L312 -166Z" />
<glyph unicode=")" glyph-name="parenright" horiz-adv-x="383" d="M-132 -164L-135 -153Q41 -92 146 75T251 432Q251 548 217 624T102 757L107 766Q206 718 271 622T336 405Q336 300 293 202T182 31T32 -93T-132 -164Z" />
<glyph unicode="*" glyph-name="asterisk" horiz-adv-x="423" d="M351 397Q322 383 304 427Q299 439 285 544L276 546Q275 544 258 518T228 473T207 449Q172 422 153 444Q132 468 166 497Q177 507 271 551V560Q166 590 158 595Q120 617 136 645Q152 672 190 649Q211
636 274 565L283 569Q278 675 281 688Q290 730 322 725Q352 721 343 674Q341 666 331 645T305 597T288 566L295 562Q301 564 326 573T375 590T408 599Q451 602 454 572Q457 541 413 536Q400 535 350 544T295 553L290 548Q294 543 312 521T344 479T362 451Q378 410
351 397Z" />
<glyph unicode="+" glyph-name="plus" horiz-adv-x="556" d="M377 547L321 336H531L525 314H315L258 100H232L289 314H77L83 336H295L351 547H377Z" />
<glyph unicode="," glyph-name="comma" horiz-adv-x="219" d="M-73 -144L-77 -132Q40 -81 71 -12L67 -10Q41 -14 24 1T7 42Q7 66 24 83T66 100Q90 100 107 81T125 34Q125 -67 -73 -144Z" />
<glyph unicode="-" glyph-name="hyphen" horiz-adv-x="366" d="M57 238L68 279H324L313 238H57Z" />
<glyph unicode="." glyph-name="period" horiz-adv-x="219" d="M66 -16Q41 -16 24 1T7 42T24 83T66 100Q90 100 107 83T124 42T107 1T66 -16Z" />
<glyph unicode="/" glyph-name="slash" horiz-adv-x="457" d="M-119 -215L222 265L559 746H591L250 265L-87 -215H-119Z" />
<glyph unicode="0" glyph-name="zero" horiz-adv-x="599" d="M139 163Q139 6 248 6Q306 6 356 56T439 181T489 341T507 497Q507 654 398 654Q340 654 290 604T207 479T157 319T139 163ZM598 438Q598 341 555 239T429 61T245 -14Q158 -14 103 47T48 222Q48 319
91 421T217 599T401 674Q488 674 543 613T598 438Z" />
<glyph unicode="1" glyph-name="one" horiz-adv-x="418" d="M-23 0L-20 13Q60 17 88 28T126 73L253 550Q263 581 259 599T229 625T144 636L148 649L378 667L216 73Q206 39 227 28T329 13L326 0H-23Z" />
<glyph unicode="2" glyph-name="two" horiz-adv-x="539" d="M-8 0L6 59L267 250Q365 321 405 386T446 526Q446 656 340 656Q301 656 266 635T209 582Q261 565 261 513Q261 486 243 466T197 445Q168 445 151 463T134 514Q134 578 198 626T350 674Q439 674 492 632T545
524Q545 457 483 392T229 193L68 79V77H307Q365 77 394 96T464 184L477 183L424 0H-8Z" />
<glyph unicode="3" glyph-name="three" horiz-adv-x="549" d="M212 332L218 354Q355 354 412 402Q439 425 455 466T471 546Q471 656 357 656Q312 656 277 638T227 598Q271 580 271 537Q271 512 255 492T209 472Q183 472 166 490T148 534Q148 591 209 632T363 674Q458
674 510 632T563 526Q563 461 492 406T286 341L285 337Q389 330 440 288T491 182Q491 99 417 43T234 -14Q141 -14 85 25T28 120Q28 152 45 174T93 196Q118 196 133 178T148 137Q148 86 99 69Q108 44 144 24T227 4Q301 4 341 44Q397 100 397 201Q397 325 212 332Z"
/>
<glyph unicode="4" glyph-name="four" horiz-adv-x="568" d="M546 215H396L356 65Q348 37 366 26T445 13L442 0H150L153 13Q208 14 232 26T265 65L305 215H15L28 261L463 660H516L411 269H561L546 215ZM396 568L72 269H320L400 568H396Z" />
<glyph unicode="5" glyph-name="five" horiz-adv-x="540" d="M215 -14Q135 -14 83 24T31 119Q31 147 49 171T98 195Q124 195 139 179T154 139Q154 88 105 69Q124 4 225 4Q286 4 327 47T384 145T400 256Q400 387 291 387Q208 387 136 337L115 344L212 660H582L549
579H209L140 360Q222 407 299 407Q388 407 441 363T494 241Q494 140 412 63T215 -14Z" />
<glyph unicode="6" glyph-name="six" horiz-adv-x="554" d="M238 -14Q147 -14 97 46T47 193Q47 394 193 523T582 678L581 664Q485 646 410 611T287 529T209 435T163 333L165 331Q248 440 351 440Q434 440 476 392T518 268Q518 162 438 74T238 -14ZM239 6Q296 6
339 53T403 164T424 293Q424 418 334 418Q262 418 199 341T136 152Q136 84 162 45T239 6Z" />
<glyph unicode="7" glyph-name="seven" horiz-adv-x="511" d="M29 -10V-4L530 586H257Q212 586 186 564T116 463H104L162 660H596L599 649L316 257L125 -10H29Z" />
<glyph unicode="8" glyph-name="eight" horiz-adv-x="541" d="M239 -14Q143 -14 90 30T37 141Q37 202 91 253T236 332Q140 390 140 470Q140 549 209 611T377 674Q464 674 510 633T557 531Q557 474 508 427T372 350Q429 318 460 280T492 188Q492 101 416 44T239
-14ZM260 318L254 321Q189 293 155 243T120 141Q120 80 156 43T249 6Q314 6 356 43T398 158Q398 208 365 243T260 318ZM230 508Q230 466 260 432T350 361Q410 391 442 438T474 541Q474 594 446 624T367 654Q311 654 271 616T230 508Z" />
<glyph unicode="9" glyph-name="nine" horiz-adv-x="550" d="M371 674Q460 674 510 614T560 462Q560 264 414 136T25 -18L26 -4Q127 16 203 51T326 132T399 224T442 325L440 327Q366 220 256 220Q175 220 132 268T89 395Q89 499 171 586T371 674ZM365 654Q311
654 268 608T204 498T183 369Q183 242 276 242Q347 242 409 317T471 512Q471 575 444 614T365 654Z" />
<glyph unicode=":" glyph-name="colon" horiz-adv-x="219" d="M66 -16Q41 -16 24 1T7 42T24 83T66 100Q90 100 107 83T124 42T107 1T66 -16ZM141 285Q116 285 99 302T82 343T99 384T141 401Q165 401 182 384T199 343T182 302T141 285Z" />
<glyph unicode=";" glyph-name="semicolon" horiz-adv-x="219" d="M141 285Q116 285 99 302T82 343T99 384T141 401Q165 401 182 384T199 343T182 302T141 285ZM-73 -144L-77 -132Q40 -81 71 -12L67 -10Q41 -14 24 1T7 42Q7 66 24 83T66 100Q90 100 107 81T125
34Q125 -67 -73 -144Z" />
<glyph unicode="&lt;" glyph-name="less" horiz-adv-x="550" d="M444 100L106 313L112 336L557 550L548 518L137 322L452 129L444 100Z" />
<glyph unicode="=" glyph-name="equal" horiz-adv-x="543" d="M487 214H49L54 236H492L487 214ZM537 412H99L104 434H542L537 412Z" />
<glyph unicode="&gt;" glyph-name="greater" horiz-adv-x="550" d="M154 550L492 337L486 314L41 100L50 132L461 328L146 521L154 550Z" />
<glyph unicode="?" glyph-name="question" horiz-adv-x="454" d="M174 179L148 185L190 340Q415 391 415 586Q415 708 296 708Q248 708 216 686T172 636Q221 620 223 572Q224 551 208 535T167 518Q141 518 125 535T107 578Q105 636 162 680T299 725Q390 725 448
678T506 559Q506 472 430 413T213 325L174 179ZM132 -16Q107 -16 90 1T73 42T90 83T132 100Q156 100 173 83T190 42T173 1T132 -16Z" />
<glyph unicode="@" glyph-name="at" horiz-adv-x="909" d="M452 -146Q283 -146 180 -47T76 217Q76 417 209 550T539 684Q683 684 778 597T873 376Q873 235 797 148T626 61Q506 61 508 148H505Q450 69 384 69Q332 69 302 100T272 188Q272 255 306 322T395 433T506
476Q577 476 601 411H602L626 469L700 478L642 340L587 190Q577 163 577 141Q577 84 641 84Q718 84 784 168T851 375Q851 500 763 582T537 665Q412 665 311 604T154 441T98 217Q98 66 194 -30T454 -127Q592 -127 713 -44L723 -58Q598 -146 452 -146ZM413 104Q463
104 516 189L587 374Q583 412 562 435T508 458Q467 458 429 410T369 301T348 192Q348 147 366 126T413 104Z" />
<glyph unicode="A" glyph-name="A" horiz-adv-x="675" d="M-64 0L-60 13Q-3 25 35 60T126 178L465 708H489L575 118Q584 55 599 38T669 13L665 0H377L381 13Q451 17 468 35T478 112L458 274H216L143 158Q95 80 102 53T176 13L172 0H-64ZM455 295L419 589H415L229
295H455Z" />
<glyph unicode="B" glyph-name="B" horiz-adv-x="658" d="M278 379H344Q562 379 562 566Q562 623 528 649T410 676H357L278 379ZM182 21H293Q507 21 507 234Q507 294 465 325T328 357H272L182 21ZM154 684L157 697H412Q540 697 600 658T661 554Q661 484 601 433T423
368L422 365Q612 341 612 207Q612 124 525 62T280 0H-30L-27 13Q43 17 68 29T102 72L249 624Q257 654 240 667T154 684Z" />
<glyph unicode="C" glyph-name="C" horiz-adv-x="683" d="M331 -17Q212 -17 135 64T58 270Q58 381 111 482T262 649T479 714Q578 714 655 660L707 711H723L660 486H644Q627 553 616 585T586 646T541 686T473 696Q387 696 313 627T199 457T159 253Q159 146 214
84T369 22Q506 22 634 194L649 183Q619 142 592 112T526 49T437 0T331 -17Z" />
<glyph unicode="D" glyph-name="D" horiz-adv-x="750" d="M102 72L249 624Q257 654 240 667T154 684L157 697H391Q575 697 660 619T745 408Q745 330 715 257T627 126Q501 0 301 0H-30L-27 13Q43 17 68 29T102 72ZM182 21H318Q434 21 518 105Q578 165 610 256T643
454Q643 565 590 620T416 676H357L182 21Z" />
<glyph unicode="E" glyph-name="E" horiz-adv-x="671" d="M157 697H710L661 499H645Q625 605 611 630Q591 668 534 674Q518 676 496 676H357L278 378H348Q405 378 429 396T503 495H518L450 232H435Q426 318 413 338T343 358H272L182 21H343Q378 21 404 24T453
40T492 62T529 101T564 148T606 214H623L559 0H-30L-27 13Q43 17 68 29T102 72L249 624Q257 654 240 667T154 684L157 697Z" />
<glyph unicode="F" glyph-name="F" horiz-adv-x="640" d="M301 0H-30L-27 13Q43 17 68 29T102 72L249 624Q257 654 240 667T154 684L157 697H710L660 494H644Q623 601 611 625Q591 667 536 674Q519 676 496 676H357L275 368H344Q403 368 426 384T497 477H512L445
216H430Q420 304 413 321Q401 346 358 348Q351 348 343 348H270L196 73Q188 43 208 30T304 13L301 0Z" />
<glyph unicode="G" glyph-name="G" horiz-adv-x="718" d="M723 711L662 496H646Q627 561 616 591T586 650T541 687T473 696Q407 696 347 655T247 548T183 401T159 241Q159 133 213 67T353 1Q431 1 488 38L543 245Q551 275 534 288T448 305L451 318H734L731 305Q682
302 664 289T636 243L581 50Q514 15 463 -1T343 -17Q217 -17 138 63T58 270Q58 381 111 482T262 649T479 714Q578 714 655 660L707 711H723Z" />
<glyph unicode="H" glyph-name="H" horiz-adv-x="820" d="M408 0L411 13Q479 17 500 30T530 75L604 351H270L196 73Q189 45 206 31T289 13L286 0H-30L-27 13Q43 17 68 29T102 72L249 624Q257 654 240 667T154 684L157 697H465L462 684Q394 680 373 667T343 622L276
372H610L677 624Q684 652 667 666T584 684L587 697H903L900 684Q830 680 805 668T771 625L624 73Q616 43 633 30T719 13L716 0H408Z" />
<glyph unicode="I" glyph-name="I" horiz-adv-x="413" d="M487 684Q416 680 389 668T354 626L206 73Q198 41 218 29T310 13L307 0H-25L-22 13Q49 17 76 30T112 72L259 624Q267 655 247 667T156 684L159 697H490L487 684Z" />
<glyph unicode="J" glyph-name="J" horiz-adv-x="561" d="M156 -17Q79 -17 34 16T-11 100Q-11 134 12 160T68 187Q95 187 111 171T127 127Q127 98 108 77T57 51Q85 -1 155 -1Q213 -1 248 37T307 159L431 624Q439 655 418 667T323 684L326 697H662L659 684Q588
680 561 668T526 626L410 194Q382 93 318 38T156 -17Z" />
<glyph unicode="K" glyph-name="K" horiz-adv-x="767" d="M837 697L834 684Q768 670 731 650T605 559L427 416L563 127Q594 60 615 42T697 13L694 0H388L391 13Q457 19 472 37T466 106L353 357L250 275L196 73Q189 45 205 31T279 13L276 0H-30L-27 13Q43 17 68
29T102 72L249 624Q257 654 240 667T154 684L157 697H465L462 684Q394 680 373 667T343 622L259 307L592 575Q640 612 636 643T569 684L572 697H837Z" />
<glyph unicode="L" glyph-name="L" horiz-adv-x="620" d="M343 622L182 21H325Q368 21 395 28T450 62T500 118T566 217Q571 224 573 228H592L525 0H-30L-27 13Q43 17 68 29T102 72L249 624Q257 654 240 667T154 684L157 697H465L462 684Q394 680 373 667T343 622Z" />
<glyph unicode="M" glyph-name="M" horiz-adv-x="966" d="M150 684L153 697H374L456 128H459L826 697H1050L1047 684Q977 680 952 668T918 625L771 73Q763 43 780 30T866 13L863 0H555L558 13Q626 17 648 30T678 75L830 647H825L402 -6H384L286 647H281L152 151Q132
76 146 50T232 13L229 0H-34L-31 13Q36 15 70 45T124 151L247 624Q255 653 237 666T150 684Z" />
<glyph unicode="N" glyph-name="N" horiz-adv-x="799" d="M330 697L614 128H615L726 547Q745 620 728 646T638 684L641 697H897L894 684Q822 672 797 647T752 547L602 -17H581L271 604H270L149 151Q129 80 145 52T233 13L230 0H-32L-29 13Q45 24 74 51T122 151L239
591Q249 626 229 654T150 684L153 697H330Z" />
<glyph unicode="O" glyph-name="O" horiz-adv-x="751" d="M328 -17Q211 -17 135 64T58 270Q58 352 90 432T177 574T311 675T477 714Q594 714 670 633T747 427Q747 345 715 265T628 123T494 22T328 -17ZM333 1Q420 1 494 73T607 252T647 466T604 634T473 696Q385
696 311 624T198 445T158 231T201 63T333 1Z" />
<glyph unicode="P" glyph-name="P" horiz-adv-x="619" d="M265 330H333Q385 330 425 344T490 380T529 434T550 494T556 557Q556 618 524 647T417 676H357L265 330ZM154 684L157 697H399Q535 697 595 652T655 533Q655 442 573 376T339 310H259L196 73Q189 45 206
31T289 13L286 0H-30L-27 13Q43 17 68 29T102 72L249 624Q257 654 240 667T154 684Z" />
<glyph unicode="Q" glyph-name="Q" horiz-adv-x="751" d="M58 270Q58 352 90 432T177 574T311 675T477 714Q594 714 670 633T747 427Q747 319 696 220T550 55T344 -16Q373 -29 399 -58T442 -114T481 -162T528 -183Q544 -183 554 -174T564 -150Q564 -140 548 -124T531
-91Q531 -69 545 -55T582 -40Q603 -40 617 -56T632 -97Q632 -146 591 -176T483 -206Q444 -206 412 -189T359 -148T320 -100T282 -59T241 -42Q203 -42 173 -61T104 -126L92 -114Q160 -24 250 -6Q164 18 111 93T58 270ZM647 359T647 466T604 634T473 696Q385 696
311 624T198 445T158 231T201 63T333 1Q420 1 494 73T607 252Z" />
<glyph unicode="R" glyph-name="R" horiz-adv-x="683" d="M273 361H345Q450 361 507 417T565 563Q565 621 531 648T417 676H357L273 361ZM154 684L157 697H399Q665 697 665 547Q665 472 602 421T418 353L417 350Q510 341 541 305T569 189L565 109Q562 49 579 29T659
7L656 -6Q652 -6 633 -6T610 -7Q536 -7 504 4T466 44T467 120L475 199Q482 275 455 307T339 340H267L196 73Q189 45 206 31T289 13L286 0H-30L-27 13Q43 17 68 29T102 72L249 624Q257 654 240 667T154 684Z" />
<glyph unicode="S" glyph-name="S" horiz-adv-x="549" d="M-6 -18L51 211H65Q108 89 151 47T265 4Q338 4 380 48T422 155Q422 206 392 245T280 325Q200 364 167 398T134 494Q134 581 205 646T384 711Q455 711 534 668L593 717H609L556 506H540Q502 618 466 655T366
693Q304 693 263 650T221 545Q221 517 230 496T262 456T305 426T363 395Q436 358 470 318T504 219Q504 124 439 55T246 -14Q203 -14 151 0T67 33L10 -18H-6Z" />
<glyph unicode="T" glyph-name="T" horiz-adv-x="671" d="M241 72L402 676H356Q282 676 242 642T114 479H95L163 697H750L698 479H682Q660 601 649 627Q631 667 586 674Q570 676 548 676H496L335 73Q327 41 347 29T439 13L436 0H104L107 13Q178 17 205 30T241 72Z" />
<glyph unicode="U" glyph-name="U" horiz-adv-x="773" d="M322 622L224 253Q212 208 212 170Q212 98 252 57T371 16Q473 16 532 64T621 228L705 547Q724 620 707 646T617 684L620 697H876L873 684Q801 672 777 647T733 547L641 200Q614 97 546 40T339 -17Q231
-17 175 37T118 177Q118 214 128 250L228 624Q236 654 219 667T133 684L136 697H444L441 684Q373 680 352 667T322 622Z" />
<glyph unicode="V" glyph-name="V" horiz-adv-x="689" d="M819 684Q766 674 726 639T640 531L288 -15H265L184 590Q178 637 160 655T87 684L90 697H383L380 684Q310 680 291 663T277 599L337 107H341L612 532Q662 612 653 642T570 684L573 697H822L819 684Z" />
<glyph unicode="W" glyph-name="W" horiz-adv-x="1012" d="M282 598L336 118H340L572 496L562 589Q557 636 539 655T466 684L469 697H755L752 684Q684 681 669 665T658 598L701 124H705L932 521Q978 601 969 637T887 684L890 697H1133L1130 684Q1078 675 1039
636T958 524L655 -15H632L576 464L287 -15H264L188 589Q182 636 164 655T92 684L95 697H373L370 684Q304 681 290 665T282 598Z" />
<glyph unicode="X" glyph-name="X" horiz-adv-x="708" d="M336 0L339 13Q410 17 427 39T430 105L353 322L173 130Q125 80 131 50T197 13L194 0H-61L-58 13Q2 21 43 47T156 147L345 343L247 596Q229 642 207 659T124 684L127 697H438L435 684Q362 680 344 658T342
592L416 398L580 567Q612 600 620 625T613 665T557 684L560 697H815L812 684Q753 676 712 650T597 550L424 375L525 101Q542 56 565 38T650 13L647 0H336Z" />
<glyph unicode="Y" glyph-name="Y" horiz-adv-x="681" d="M630 561L408 308L345 73Q337 41 357 29T449 13L446 0H114L117 13Q188 17 215 30T251 72L314 308L211 610Q197 651 182 662T112 684L115 697H424L421 684Q334 680 313 665T303 616L397 330L603 570Q649
621 640 648T560 684L563 697H814L811 684Q749 675 723 657T630 561Z" />
<glyph unicode="Z" glyph-name="Z" horiz-adv-x="654" d="M600 676H408Q351 676 296 640T149 493L132 495L202 697H725L726 683L103 21H323Q384 21 432 56T579 212L593 210L527 0H-25L-26 14L600 676Z" />
<glyph unicode="[" glyph-name="bracketleft" horiz-adv-x="364" d="M-8 -165L241 764H529L523 743H313L75 -144H285L280 -165H-8Z" />
<glyph unicode="\" glyph-name="backslash" horiz-adv-x="457" d="M306 -215L227 265L144 746H172L251 265L334 -215H306Z" />
<glyph unicode="]" glyph-name="bracketright" horiz-adv-x="364" d="M-130 -166L-124 -145H86L324 742H114L119 763H407L158 -166H-130Z" />
<glyph unicode="^" glyph-name="asciicircum" horiz-adv-x="353" d="M98 548L301 760H317L411 548H387L289 673L128 548H98Z" />
<glyph unicode="_" glyph-name="underscore" horiz-adv-x="440" d="M-61 0L-53 31H391L383 0H-61Z" />
<glyph unicode="`" glyph-name="grave" horiz-adv-x="238" d="M296 530L179 632Q139 667 139 688Q139 703 150 714T177 726T205 712T234 665L303 530H296Z" />
<glyph unicode="a" glyph-name="a" horiz-adv-x="519" d="M451 306L396 108Q385 68 385 53Q385 31 405 24T471 20V11Q422 -8 383 -8Q345 -8 328 2T310 39Q310 59 319 89L316 90Q280 36 246 14T166 -9Q104 -9 69 32T34 147Q34 258 117 362T303 466Q373 466 404
402L423 455L505 466L451 306ZM307 448Q257 448 212 392T145 269T122 152Q122 94 141 61T200 27Q263 27 323 139L388 357Q381 401 359 424T307 448Z" />
<glyph unicode="b" glyph-name="b" horiz-adv-x="503" d="M192 9Q246 9 291 57T361 173T385 308Q385 416 301 416Q247 416 191 360L113 56Q134 9 192 9ZM470 320Q470 249 433 174T329 45T185 -9Q88 -9 25 49L85 255L184 645Q191 671 173 683T99 698V710L290 717L196
385L198 383Q273 466 353 466Q405 466 437 428T470 320Z" />
<glyph unicode="c" glyph-name="c" horiz-adv-x="428" d="M286 466Q345 466 381 441T417 377Q417 351 403 335T365 319Q342 319 328 332T313 371Q313 383 322 399T348 423Q331 448 290 448Q242 448 201 400T139 288T118 166Q118 21 234 21Q310 21 372 104L385
93Q310 -9 207 -9Q132 -9 82 41T32 176Q32 284 109 375T286 466Z" />
<glyph unicode="d" glyph-name="d" horiz-adv-x="513" d="M563 717L396 116Q386 81 386 62Q386 38 405 27T475 20V11Q428 -8 384 -8Q309 -8 309 49Q309 66 313 84H310Q243 -9 165 -9Q104 -9 69 37T33 158Q33 223 67 294T163 415T292 466Q356 466 400 420L460 644Q467
670 448 682T373 698V710L563 717ZM297 448Q244 448 202 392T140 269T121 152Q121 96 142 67T203 37Q270 37 319 130L388 367Q360 448 297 448Z" />
<glyph unicode="e" glyph-name="e" horiz-adv-x="432" d="M429 366Q429 303 350 262T120 220Q115 187 115 160Q115 89 139 56T220 22Q299 22 364 104L377 93Q296 -9 191 -9Q124 -9 76 31T28 158Q28 232 64 303T164 420T302 466Q363 466 396 439T429 366ZM298 445Q243
445 193 383T123 235Q352 242 352 387Q352 445 298 445Z" />
<glyph unicode="f" glyph-name="f" horiz-adv-x="304" d="M353 439H238L164 88Q129 -79 84 -139T-41 -200Q-88 -200 -114 -182T-140 -133Q-140 -111 -127 -97T-91 -82T-56 -96T-43 -130Q-43 -156 -65 -173Q-55 -181 -34 -181Q0 -181 20 -149T62 -15L161 439H50L56
457H163L174 501Q203 614 256 668T378 723Q428 723 456 701T485 644Q485 620 472 605T435 590Q413 590 400 603T386 640Q386 668 404 690Q395 705 370 705Q299 705 263 554L240 457H359L353 439Z" />
<glyph unicode="g" glyph-name="g" horiz-adv-x="503" d="M174 0Q115 0 76 42T36 158Q36 223 69 294T164 415T292 466Q364 466 404 412L419 455L503 466L449 304L362 -8Q334 -109 283 -154T132 -200Q61 -200 20 -173T-21 -107Q-21 -76 -5 -58T38 -39Q60 -39 73
-53T86 -90Q86 -121 54 -141Q78 -182 131 -182Q190 -182 227 -135T290 2L309 74L307 75Q274 36 245 18T174 0ZM297 448Q244 448 202 392T141 269T122 152Q122 40 209 40Q268 40 314 113L389 363Q360 448 297 448Z" />
<glyph unicode="h" glyph-name="h" horiz-adv-x="519" d="M464 309L393 94Q384 66 384 49Q384 28 403 22T472 20V11Q424 -8 386 -8Q306 -8 306 50Q306 70 315 97L382 299Q393 334 393 357Q393 410 334 410Q276 410 189 340L106 0H17L65 162L188 645Q195 671 177
683T103 698V710L294 717L194 364L196 362Q243 407 294 435T385 464Q429 464 452 441T476 375Q476 346 464 309Z" />
<glyph unicode="i" glyph-name="i" horiz-adv-x="286" d="M200 618Q200 648 219 672T264 696Q282 696 293 685T305 652Q305 622 287 597T242 572Q224 572 212 584T200 618ZM230 23V14Q175 -8 128 -8Q49 -8 49 58Q49 77 57 104L148 394Q155 418 137 429T72 443V455L253
461L141 103Q131 70 131 57Q131 35 152 28T230 23Z" />
<glyph unicode="j" glyph-name="j" horiz-adv-x="264" d="M183 618Q183 648 202 672T247 696Q265 696 276 685T288 652Q288 622 270 597T225 572Q207 572 195 584T183 618ZM-59 -201Q-105 -201 -132 -183T-160 -133Q-160 -111 -147 -97T-111 -82T-76 -96T-63 -130Q-63
-156 -85 -173Q-75 -181 -54 -181Q-22 -181 0 -140T51 16L145 399Q150 418 133 429T67 443V455L241 461L135 35Q103 -95 60 -148T-59 -201Z" />
<glyph unicode="k" glyph-name="k" horiz-adv-x="486" d="M294 717L171 270H200Q227 270 251 290T292 339T327 397T369 446T421 466T465 450T481 411Q481 383 467 367T430 351Q409 351 395 363T381 396Q381 410 390 424Q377 421 360 400T327 353T289 303T245 267V265Q322
258 349 233T376 159Q376 146 373 103T369 42T384 18T450 10V1Q428 -8 364 -8Q316 -8 301 4T285 50Q285 72 288 109T291 159Q291 215 275 235T217 255H168L106 0H18L65 162L188 645Q195 671 177 683T103 698V710L294 717Z" />
<glyph unicode="l" glyph-name="l" horiz-adv-x="277" d="M310 717L131 104Q123 77 123 61Q123 37 145 29T226 24V15Q171 -7 118 -7Q40 -7 40 59Q40 78 48 105L155 458L205 645Q212 671 194 683T120 698V710L310 717Z" />
<glyph unicode="m" glyph-name="m" horiz-adv-x="780" d="M228 461L196 364L200 360Q308 464 379 464Q468 464 468 375V364Q578 464 646 464Q690 464 713 442T737 377Q737 346 725 309L654 94Q645 66 645 49Q645 28 664 22T733 20V11Q686 -8 647 -8Q567 -8 567
50Q567 70 576 97L643 299Q656 340 656 363Q656 410 605 410Q545 410 466 346Q465 336 458 309L372 0H289L377 299Q389 338 389 362Q389 410 333 410Q279 410 192 340L109 0H19L68 162L130 390Q137 417 124 428T66 443V455L228 461Z" />
<glyph unicode="n" glyph-name="n" horiz-adv-x="522" d="M68 162L130 390Q137 417 124 428T66 443V455L228 461L196 364L198 362Q245 407 296 435T388 464Q432 464 455 441T479 375Q479 346 467 309L396 94Q387 66 387 49Q387 28 406 22T475 20V11Q428 -8 389
-8Q309 -8 309 50Q309 70 318 97L385 299Q396 334 396 357Q396 410 337 410Q279 410 192 340L109 0H19L68 162Z" />
<glyph unicode="o" glyph-name="o" horiz-adv-x="485" d="M289 466Q362 466 408 415T454 279Q454 208 424 143T333 34T196 -9Q123 -9 77 42T31 178Q31 290 103 378T289 466ZM200 10Q254 10 295 68T355 194T373 317Q373 447 285 447Q231 447 190 389T130 263T112
140Q112 10 200 10Z" />
<glyph unicode="p" glyph-name="p" horiz-adv-x="515" d="M218 15Q293 15 345 108T397 308Q397 416 310 416Q249 416 200 360L126 73Q135 47 162 31T218 15ZM112 18L67 -147Q62 -164 82 -171T159 -180V-192H-98V-180Q-27 -177 -20 -152L23 -17L131 392Q138 418
125 429T66 443V455L228 461L204 384L206 382Q282 466 360 466Q413 466 447 428T482 320Q482 249 446 175T345 48T206 -5Q151 -5 112 18Z" />
<glyph unicode="q" glyph-name="q" horiz-adv-x="503" d="M297 448Q244 448 202 392T140 269T121 152Q121 96 142 67T203 37Q270 37 319 130L388 367Q360 448 297 448ZM245 -152L320 88H315Q251 -9 165 -9Q104 -9 69 37T33 158Q33 223 67 294T163 415T292 466Q366
466 406 412L421 455L505 466L451 304L332 -154Q328 -169 342 -173T408 -180V-192H153V-180Q204 -178 222 -172T245 -152Z" />
<glyph unicode="r" glyph-name="r" horiz-adv-x="396" d="M354 464Q385 464 401 447T418 405Q418 376 403 357T363 338Q313 338 313 383Q313 401 323 416Q266 413 187 322L109 0H19L68 162L130 390Q137 417 124 428T66 443V455L228 461L193 352L195 350Q286 464 354 464Z" />
<glyph unicode="s" glyph-name="s" horiz-adv-x="388" d="M153 -9Q95 -9 53 14T10 75Q10 102 24 119T63 137Q84 137 96 124T109 88Q109 60 82 39Q87 27 114 18T167 9Q212 9 241 35T271 100Q271 118 265 132T242 160T214 181T179 202Q147 220 130 232T96 269T79
322Q79 383 123 424T247 466Q302 466 339 441T377 381Q377 357 364 342T326 326Q307 326 294 340T280 373Q280 403 307 422Q302 433 279 440T236 448Q196 448 171 424T145 363Q145 345 151 331T174 303T200 283T235 261Q267 242 284 230T317 192T334 137Q334 79
288 35T153 -9Z" />
<glyph unicode="t" glyph-name="t" horiz-adv-x="321" d="M355 439H234L146 125Q138 95 138 76Q138 31 190 31Q232 31 279 45V36Q210 -9 148 -9Q54 -9 54 69Q54 90 62 120L155 439H68L74 457H160L203 604L289 617L239 457H361L355 439Z" />
<glyph unicode="u" glyph-name="u" horiz-adv-x="540" d="M59 146L137 390Q146 416 132 428T73 443V455L238 461L141 156Q131 125 131 99Q131 45 199 45Q230 45 259 62T332 118L387 301L427 459H515L405 100Q396 72 396 53Q396 31 415 24T482 20V11Q432 -9 392
-9Q318 -9 318 45Q318 63 327 90L325 93Q233 -9 148 -9Q97 -9 73 16T48 84Q48 111 59 146Z" />
<glyph unicode="v" glyph-name="v" horiz-adv-x="455" d="M182 -11L132 -6L127 149L98 391Q95 420 82 428T26 436V448L171 462L204 143L207 65H214L280 154Q374 280 394 348Q345 372 345 413Q345 436 359 451T395 467Q420 467 435 449T451 407Q451 372 430 332T343
203L182 -11Z" />
<glyph unicode="w" glyph-name="w" horiz-adv-x="694" d="M436 -12L383 -5L379 149L365 261L186 -11L131 -6L127 149L98 391Q95 420 82 428T26 436V448L171 462L204 143L205 66H212L268 152Q343 268 359 314L342 455L423 462L456 143L459 63H466L529 154Q567 205
591 248T619 305T633 348Q584 372 584 413Q584 436 598 451T634 467Q659 467 674 449T690 407Q690 369 672 329T592 203L436 -12Z" />
<glyph unicode="x" glyph-name="x" horiz-adv-x="489" d="M207 462L269 270H271L314 351Q374 468 442 468Q470 468 486 451T503 408Q503 384 490 371T454 357T419 373T405 418Q370 409 317 311L280 243L350 71Q364 37 378 27T436 14V2L293 -2L230 195H228L182
110Q145 39 115 11T54 -17Q22 -17 5 0T-13 43Q-13 66 0 80T36 94Q57 94 71 77T85 33Q100 38 126 68T177 144L219 219L153 382Q139 416 125 426T64 436V448L207 462Z" />
<glyph unicode="y" glyph-name="y" horiz-adv-x="447" d="M165 462L195 277L230 44H232L296 145Q371 263 384 346Q330 366 330 413Q330 436 344 451T380 467Q405 467 420 448T435 400Q435 358 412 304T297 106Q215 -24 159 -93T72 -181T5 -200Q-32 -200 -51 -182T-70
-135Q-70 -112 -55 -96T-18 -79T18 -94T33 -133Q33 -156 27 -167Q104 -148 171 -40L133 180L96 391Q91 420 78 428T21 436V448L165 462Z" />
<glyph unicode="z" glyph-name="z" horiz-adv-x="451" d="M5 -16L-11 5L382 396L381 398L204 396Q153 395 136 382T86 305L74 307L113 459H446L455 441L76 57L77 55Q113 64 150 64Q168 64 214 61T274 57Q320 57 341 76T375 152L387 150Q373 48 347 19T251 -11Q221
-11 178 -5T110 2Q48 2 5 -16Z" />
<glyph unicode="{" glyph-name="braceleft" horiz-adv-x="411" d="M314 -169Q227 -165 172 -122T116 -13Q116 33 147 117T178 227Q178 274 153 292T45 319L49 335Q117 340 151 350T209 384Q232 407 241 447T253 525T272 612T326 696Q392 762 547 764L542 748Q489
743 462 733T412 699Q384 671 368 627T348 543T327 460T282 386Q230 334 102 328L100 323Q188 315 220 283T253 198Q253 161 229 82T205 -35Q205 -79 232 -112T318 -153L314 -169Z" />
<glyph unicode="|" glyph-name="bar" horiz-adv-x="306" d="M140 746H166V-215H140V746Z" />
<glyph unicode="}" glyph-name="braceright" horiz-adv-x="411" d="M-101 -169L-96 -153Q-43 -148 -16 -138T34 -104Q62 -76 78 -29T99 61T122 152T169 231Q221 283 349 289L351 294Q263 302 231 334T198 419Q198 453 219 522T241 630Q241 674 214 707T128 748L132
764Q219 760 274 717T330 608Q330 562 302 488T273 390Q273 344 298 326T406 298L402 282Q334 277 301 267T244 233T209 165T195 79T174 -14T120 -101Q54 -167 -101 -169Z" />
<glyph unicode="~" glyph-name="asciitilde" horiz-adv-x="371" d="M60 251Q75 312 99 340T159 369Q178 369 226 345T293 321Q313 321 325 333T352 380H368Q353 319 329 291T269 262Q250 262 202 286T135 310Q115 310 103 298T76 251H60Z" />
</font>
</defs>
</svg>
